<?xml version="1.0" standalone="no"?>
<!DOCTYPE svg PUBLIC "-//W3C//DTD SVG 20010904//EN"
 "http://www.w3.org/TR/2001/REC-SVG-20010904/DTD/svg10.dtd">
<svg version="1.0" xmlns="http://www.w3.org/2000/svg"
 width="450.000000pt" height="450.000000pt" viewBox="0 0 450.000000 450.000000"
 preserveAspectRatio="xMidYMid meet">
<metadata>
Created by potrace 1.11, written by Peter Selinger 2001-2013
</metadata>
<g transform="translate(0.000000,450.000000) scale(0.100000,-0.100000)"
fill="#000000" stroke="none">
<path d="M110 3712 c0 -4 -13 -15 -28 -24 -16 -9 -37 -33 -47 -52 -11 -20 -23
-36 -26 -36 -4 0 -7 -23 -7 -51 -1 -63 41 -137 95 -169 l37 -22 1585 0 c1088
0 1606 3 1651 11 36 6 94 13 128 16 35 3 67 7 72 10 5 3 41 8 81 11 40 2 75 7
80 9 4 3 47 10 96 15 48 6 120 14 158 19 39 5 131 16 205 25 74 9 165 21 202
27 36 6 74 12 84 13 22 3 30 24 12 30 -7 3 -31 7 -53 10 -22 3 -53 8 -70 11
-16 3 -46 7 -65 9 -19 3 -46 7 -60 10 -14 3 -47 8 -74 11 -27 3 -52 7 -55 10
-4 2 -32 5 -62 6 -30 1 -58 5 -64 10 -5 4 -41 10 -79 14 -38 3 -72 8 -75 10
-4 2 -35 6 -71 10 -35 3 -67 8 -71 11 -3 2 -31 6 -60 9 -57 7 -157 23 -199 33
-38 9 -3320 13 -3320 4z"/>
<path d="M2904 3222 c-11 -2 -45 -27 -74 -57 -30 -30 -61 -55 -69 -55 -9 0
-41 25 -71 55 l-56 56 -138 -3 -138 -3 22 -25 c12 -14 49 -56 83 -94 119 -132
127 -141 127 -153 0 -7 -7 -16 -15 -20 -8 -5 -45 -38 -82 -74 -37 -36 -110
-104 -161 -152 l-92 -87 -64 0 -64 0 -154 155 c-84 85 -155 162 -156 171 -2 9
26 47 65 87 96 102 173 187 173 192 0 3 -64 5 -142 5 l-143 0 -57 -55 c-32
-30 -63 -55 -71 -55 -7 0 -37 25 -67 55 l-54 55 -138 0 c-76 0 -138 -2 -138
-5 0 -3 8 -13 18 -23 9 -10 45 -49 79 -87 33 -39 77 -88 97 -110 19 -22 36
-43 36 -46 0 -3 -8 -14 -18 -25 -37 -38 -304 -288 -321 -301 -10 -7 -44 -13
-75 -14 -68 -2 -26 -38 -390 329 l-280 282 -144 0 -143 0 24 -22 c13 -13 55
-59 93 -103 38 -44 78 -89 89 -101 29 -30 138 -153 235 -264 46 -52 103 -115
126 -140 23 -25 53 -58 66 -75 l23 -29 -3 -455 c-1 -250 -4 -457 -6 -460 -2
-3 -7 -55 -11 -116 -4 -60 -8 -112 -10 -115 -2 -3 -6 -48 -10 -100 -3 -52 -8
-108 -10 -125 -7 -47 -14 -114 -20 -195 -3 -41 -8 -90 -11 -107 l-6 -33 132 0
c101 0 131 3 127 13 -2 6 0 20 5 30 5 10 11 28 13 40 2 12 7 45 11 72 4 28 9
57 11 65 2 8 5 29 7 45 1 17 5 39 9 50 3 11 8 42 12 69 3 27 8 52 9 55 2 3 7
26 10 51 3 25 13 81 21 125 9 44 18 100 21 125 8 73 10 80 21 91 16 16 33 -13
39 -68 3 -26 8 -55 11 -63 3 -8 9 -33 14 -55 4 -22 15 -71 24 -110 9 -38 18
-77 19 -85 5 -23 18 -99 18 -107 0 -5 4 -15 8 -23 4 -8 11 -33 15 -55 4 -22 8
-44 9 -50 2 -8 10 -44 21 -95 1 -3 7 -31 14 -62 l12 -58 126 0 c125 0 125 0
120 23 -3 12 -8 42 -12 67 -8 56 -13 85 -15 85 -1 0 -3 9 -4 20 -10 73 -18
119 -20 124 -2 3 -7 26 -10 51 -3 25 -8 56 -11 70 -3 14 -8 43 -11 65 -4 22
-17 96 -29 165 -22 118 -23 151 -23 581 l-1 456 42 46 c23 26 76 85 117 131
41 47 80 85 85 85 16 1 34 -17 143 -141 l103 -117 -4 -493 c-3 -271 -7 -518
-11 -548 -3 -30 -8 -75 -11 -100 -2 -25 -7 -65 -10 -90 -3 -25 -7 -79 -10
-120 -3 -41 -7 -86 -10 -100 -3 -14 -7 -61 -10 -105 -3 -44 -8 -97 -11 -118
l-6 -37 130 0 130 0 6 28 c3 15 8 47 12 72 3 24 7 47 9 50 2 3 6 32 9 64 4 32
9 62 11 66 2 4 7 25 10 46 2 21 7 50 10 64 3 14 7 41 11 60 3 19 9 55 14 80 5
25 11 64 14 88 3 24 8 46 10 50 2 4 7 36 11 72 8 80 21 108 41 89 7 -8 15 -30
17 -49 3 -19 12 -66 21 -105 10 -38 19 -85 22 -104 2 -18 6 -37 9 -41 3 -4 7
-25 10 -46 3 -22 10 -50 15 -64 5 -14 11 -41 13 -61 3 -20 7 -41 11 -47 3 -5
8 -25 10 -43 3 -19 12 -65 22 -104 9 -38 18 -83 20 -98 9 -65 13 -67 145 -67
l120 0 -5 33 c-3 17 -8 46 -11 62 -10 53 -34 189 -40 220 -2 17 -7 41 -10 55
-3 14 -7 44 -10 68 -2 23 -6 46 -9 50 -2 4 -7 29 -10 56 -4 27 -9 52 -11 56
-2 3 -7 33 -10 65 -4 33 -11 67 -16 76 -4 9 -8 230 -9 490 l0 474 22 26 c13
14 64 70 113 124 50 53 93 102 96 107 11 18 43 -2 88 -55 24 -29 60 -70 80
-92 20 -22 48 -55 63 -72 l26 -33 -3 -507 c-2 -280 -6 -519 -9 -533 -3 -14 -9
-56 -12 -95 -3 -38 -7 -88 -10 -110 -5 -51 -12 -125 -18 -195 -2 -30 -7 -73
-10 -95 -3 -22 -8 -70 -10 -107 l-5 -66 130 -1 c110 -2 129 0 129 14 0 8 0 16
1 18 3 9 20 99 24 132 3 22 10 58 15 80 5 22 12 59 14 83 3 24 8 47 10 51 3 4
7 33 10 65 4 32 8 62 11 66 2 4 7 25 10 46 2 21 7 50 10 64 3 14 10 52 15 85
14 92 20 119 29 128 8 8 24 -7 27 -28 1 -5 5 -23 9 -40 4 -16 8 -42 10 -56 1
-14 4 -30 7 -35 4 -5 9 -27 13 -49 4 -22 9 -47 11 -55 25 -108 37 -158 39
-175 2 -11 12 -58 23 -105 11 -47 23 -98 25 -115 3 -16 8 -37 11 -45 3 -8 8
-31 11 -50 14 -82 9 -80 145 -80 l120 0 -6 33 c-3 17 -9 52 -14 77 -12 55 -31
164 -36 205 -3 17 -7 41 -10 55 -3 14 -8 39 -11 55 -2 17 -18 107 -35 200
l-30 170 -2 454 -1 454 59 66 c32 36 84 93 115 126 31 33 101 109 156 170 220
242 226 248 286 312 27 28 49 54 49 57 0 3 -64 6 -142 6 l-143 -1 -66 -62
c-36 -34 -132 -125 -214 -202 -82 -77 -190 -180 -242 -229 -120 -115 -119
-114 -187 -117 -65 -3 -48 -16 -250 189 -66 68 -122 130 -124 138 -2 8 16 36
41 62 24 26 73 78 108 116 35 38 70 74 77 82 6 7 12 15 12 18 0 5 -233 13
-266 8z"/>
<path d="M962 3064 c-29 -14 -61 -39 -73 -56 -91 -127 -21 -303 129 -327 190
-30 315 192 189 336 -65 74 -156 92 -245 47z"/>
<path d="M2116 3080 c-89 -27 -152 -119 -144 -213 17 -212 311 -260 393 -65
66 160 -84 327 -249 278z"/>
<path d="M3242 3079 c-19 -5 -53 -29 -76 -52 -149 -150 -8 -395 197 -342 93
24 163 126 151 221 -16 126 -149 211 -272 173z"/>
</g>
</svg>
